<svg width="461" height="126" viewBox="0 0 461 126" fill="none" xmlns="http://www.w3.org/2000/svg">
<path d="M79.7 96.4L85.9 103.8C85.9 103.8 94.7 92.7 102.6 102.1C104.3 104.7 107.4 111.4 99.3 116.1C99.3 117.5 98.6 118.3 99.3 118.5C100 118.7 123.1 96.4 123.1 96.4H79.7Z" fill="#252C07"/>
<path d="M102.8 74.2L109 81.6C109 81.6 117.8 70.5 125.7 79.9C127.4 82.5 130.5 89.2 122.4 93.9C122.4 95.3 121.7 96.1 122.4 96.3C123.1 96.5 146.2 74.2 146.2 74.2H102.8Z" fill="#252C07"/>
<path d="M125.9 52.2L132.1 59.6C132.1 59.6 140.9 48.6 148.8 57.9C150.5 60.5 153.6 67.2 145.5 71.9C145.5 73.3 144.8 74.2 145.5 74.3C146.2 74.5 169.3 52.2 169.3 52.2H125.9Z" fill="#252C07"/>
<path d="M60.8 74.2L67 81.6C67 81.6 75.8 70.5 83.7 79.9C85.4 82.5 88.6 89.2 80.4 93.9C80.4 95.3 79.7 96.1 80.4 96.3C81.1 96.5 104.2 74.2 104.2 74.2H60.8Z" fill="#252C07"/>
<path d="M83.9 52.2L90.1 59.6C90.1 59.6 98.9 48.6 106.8 57.9C108.5 60.5 111.6 67.2 103.5 71.9C103.5 73.3 102.8 74.2 103.5 74.3C104.2 74.5 127.3 52.2 127.3 52.2H83.9Z" fill="#252C07"/>
<path d="M64.9 30L71.1 37.4C71.1 37.4 79.9 26.3 87.8 35.7C89.5 38.3 92.6 45 84.5 49.7C84.5 51.1 83.8 51.9 84.5 52.1C85.2 52.3 108.3 30 108.3 30H64.9Z" fill="#252C07"/>
<path d="M22.9 30L29.1 37.4C29.1 37.4 37.9 26.3 45.8 35.7C47.5 38.3 50.6 45 42.5 49.7C42.5 51.1 41.8 51.9 42.5 52.1C43.2 52.3 66.3 30 66.3 30H22.9Z" fill="#252C07"/>
<path d="M107 30L113.2 37.4C113.2 37.4 122 26.3 129.9 35.7C131.6 38.3 134.7 45 126.6 49.7C126.6 51.1 125.9 51.9 126.6 52.1C127.3 52.3 150.3 30 150.3 30H107Z" fill="#252C07"/>
<path d="M41.8 52.2L48 59.6C48 59.6 56.8 48.6 64.7 57.9C66.4 60.5 69.5 67.2 61.4 71.9C61.4 73.3 60.7 74.2 61.4 74.3C62.1 74.5 85.2 52.2 85.2 52.2H41.8Z" fill="#252C07"/>
<path d="M90.3 125.4C40.9 125.4 0.700012 97.3 0.700012 62.8C0.700012 28.3 40.9 0.200012 90.3 0.200012C139.7 0.200012 179.9 28.3 179.9 62.8C179.9 97.3 139.7 125.4 90.3 125.4ZM90.3 2.90002C42.3 2.90002 3.30002 29.8 3.30002 62.8C3.30002 95.8 42.3 122.7 90.3 122.7C138.3 122.7 177.3 95.8 177.3 62.8C177.3 29.8 138.3 2.90002 90.3 2.90002Z" fill="#252C07"/>
<path d="M198 83.2L198.3 82.1H199.8C201.1 82.1 202.2 81.8 203.2 81.1C204.2 80.4 204.9 78.7 205.5 76L211.2 49.5C211.7 46.8 211.7 45.1 211.1 44.4C210.5 43.7 209.5 43.4 208.1 43.4H206.6L206.8 42.3H224.5C236 42.3 241 46 239.4 53.3C238.5 57.8 235.4 60.9 230.1 62.5C236 63.8 238.4 67 237.4 72.2C236.9 74.6 235.6 76.8 233.6 78.7C231.6 80.6 229.4 81.8 227 82.4C224.6 83 221.4 83.4 217.5 83.4H198V83.2ZM214 63.4L210.4 80.2C212.6 80.8 214.9 81 217.1 81C220.4 81 223.3 80.3 225.7 78.8C228.1 77.3 229.6 75.2 230.2 72.5C230.8 69.5 230.2 67.2 228.2 65.6C226.3 64 223.3 63.2 219.3 63.2C216.8 63.1 215 63.2 214 63.4ZM217.9 44.8L214.6 60.5C216 60.8 217.9 60.9 220.2 60.9C227.7 60.9 232 58.2 233.2 52.7C233.8 49.9 233.1 47.8 231.3 46.3C229.5 44.8 226.9 44 223.5 44C221.5 44.1 219.6 44.4 217.9 44.8Z" fill="#252C07"/>
<path d="M269.8 80.6L260.8 84H259.5L260.8 78.1C256.4 82 252.8 84 250.1 84C245.4 84 243.8 80.4 245.3 73.2L247.9 60.8C248.3 59.1 248.2 57.9 247.6 57.4C247 56.8 245.9 56.6 244.1 56.6L244.3 55.5H254L250.1 74.1C249.2 78.3 250.3 80.4 253.3 80.4C255.3 80.4 257.9 79.1 261 76.5L264.3 60.8C264.6 59.3 264.6 58.2 264.1 57.6C263.6 57 262.5 56.7 260.7 56.7L260.9 55.6H270.3L266.7 72.4C266 75.5 265.8 77.5 265.8 78.6C265.8 79.7 266.3 80.2 267.2 80.2C267.8 80.2 268.6 80 269.4 79.7L269.8 80.6Z" fill="#252C07"/>
<path d="M285.3 83.2H271.7L271.9 82.1C273.5 82.1 274.7 81.8 275.4 81.1C276.1 80.4 276.6 79 277.1 77L282.5 51.8C283.2 48.7 283.4 46.7 283.4 45.7C283.4 44.7 282.9 44.2 282 44.2C281.5 44.2 280.8 44.4 279.9 44.7L279.6 43.7L288.6 40.3H290L282.2 77.1C281.8 79.2 281.8 80.6 282.2 81.2C282.7 81.9 283.8 82.2 285.6 82.2L285.3 83.2Z" fill="#252C07"/>
<path d="M302.5 83.2H288.9L289.1 82.1C290.7 82.1 291.9 81.8 292.6 81.1C293.3 80.4 293.9 79 294.3 77L299.6 51.8C300.3 48.7 300.6 46.7 300.5 45.7C300.5 44.7 300 44.2 299.2 44.2C298.7 44.2 298 44.4 297.1 44.7L296.8 43.7L305.8 40.3H307.2L299.4 77.1C299 79.2 299 80.6 299.4 81.2C299.8 81.9 300.9 82.2 302.8 82.2L302.5 83.2Z" fill="#252C07"/>
<path d="M319.5 83.2H306L306.2 82.1C307.9 82.1 309.1 81.8 309.8 81.1C310.5 80.4 311.1 79.1 311.5 77L313.8 66.3C314.5 63.1 314.8 61 314.8 60.1C314.8 59.2 314.3 58.7 313.3 58.7C312.7 58.7 312 58.8 311.1 59.2L310.9 58.1L320 54.7H321.3L316.6 77C316.2 79.1 316.1 80.5 316.5 81.1C316.9 81.8 318 82.1 319.6 82.1L319.5 83.2ZM324.3 43.2C323.9 45.2 322.7 46.3 320.6 46.3C318.5 46.3 317.7 45.3 318.1 43.2C318.5 41.1 319.8 40.1 321.9 40.1C324 40.1 324.7 41.1 324.3 43.2Z" fill="#252C07"/>
<path d="M352.9 68.8C352.1 72.8 350.1 76.3 346.9 79.4C343.8 82.5 340.1 84 335.9 84C331.7 84 328.9 82.5 327.2 79.4C325.6 76.3 325.1 73 325.9 69.5C326.7 65.5 328.7 62.1 331.9 59.1C335 56.1 338.6 54.6 342.5 54.6C346.7 54.6 349.7 56.1 351.4 59.1C353.1 62.1 353.6 65.3 352.9 68.8ZM346.7 71.1C347.3 68.1 347.5 65.6 347.2 63.4C346.9 61.2 346.2 59.6 345.2 58.4C344.2 57.2 342.8 56.6 341.1 56.6C338.9 56.6 337.1 57.5 335.5 59.3C333.9 61.1 332.8 63.7 332 67C331.1 71 331.2 74.4 332.1 77.4C333 80.4 334.8 81.9 337.6 81.9C342.2 81.8 345.2 78.3 346.7 71.1Z" fill="#252C07"/>
<path d="M382.7 83.2H369L369.2 82.1H369.8C370.8 82.1 371.7 81.9 372.4 81.5C373.1 81.1 373.6 80.7 373.8 80.2C374.1 79.7 374.4 78.6 374.8 76.9L377.2 65.6C378.2 60.8 377.3 58.4 374.4 58.4C372 58.4 369.4 59.7 366.4 62.3L363.3 76.9C362.9 79 362.8 80.3 363.1 81C363.4 81.7 364.6 82.1 366.7 82.1L366.5 83.2H352.8L353.1 82.1H353.7C355.1 82.1 356.2 81.7 356.8 81C357.4 80.3 358 78.9 358.4 76.9L360.6 66.6C361.3 63.3 361.6 61.2 361.6 60.2C361.5 59.2 361 58.7 360.1 58.7C359.6 58.7 358.8 58.8 358 59.2L357.8 58.1L366.9 54.7H368.2L366.9 60.5C371 56.6 374.5 54.7 377.4 54.7C382.2 54.7 383.8 58.2 382.3 65.2L379.8 77C379.4 79 379.3 80.3 379.7 81.1C380 81.8 381.1 82.2 383 82.2L382.7 83.2Z" fill="#252C07"/>
<path d="M401.5 77.6C399.2 81.6 396.5 83.6 393.2 83.6C389.7 83.6 388.4 81.1 389.5 76.2L393.5 57.6H389L389.2 56.6C393.2 55.1 396.7 51.7 399.9 46.4H400.8L398.9 55.5H405.4L405 57.6H398.5L394.7 75.6C394 78.7 394.7 80.2 396.5 80.2C398 80.2 399.3 79.4 400.4 77.7H401.5V77.6Z" fill="#252C07"/>
<path d="M428.1 73C427 76.1 425.1 78.8 422.5 80.8C419.9 82.9 417.2 83.9 414.4 83.9C410.8 83.9 408.2 82.5 406.5 79.8C404.9 77.1 404.5 73.7 405.3 69.6C406.3 65.2 408.1 61.5 411.1 58.7C414 55.9 417.4 54.5 421.4 54.5C424.9 54.5 427.4 55.6 428.7 57.9C429.9 60.2 430.3 62.8 429.6 65.8H410.5C409.7 69.6 409.9 72.7 411.2 75.2C412.5 77.7 414.7 79 417.7 79C421.4 79 424.6 76.8 427.2 72.4L428.1 73ZM423.7 64.1C424.5 59.2 423 56.7 419.3 56.7C417.5 56.7 415.8 57.4 414.2 58.8C412.7 60.2 411.6 61.9 410.9 64.1H423.7Z" fill="#252C07"/>
<path d="M458 83.2H444.9L445.1 82.1C446.9 82.1 447.9 81.5 448.2 80.4C448.3 80 447.9 78.8 447 76.9L444.2 70.9L438.5 76.9C436.7 78.7 435.8 79.8 435.7 80.2C435.5 81.4 436.2 82.1 438 82.2L437.8 83.3H428.7L428.9 82.2C429.6 82.1 430.3 81.9 431 81.4C431.8 80.9 433.3 79.5 435.8 77L443.2 69.3L439.6 61.7C438.7 59.8 437.9 58.5 437.2 57.8C436.5 57.1 435.5 56.8 434.1 56.8L434.3 55.7H447.4L447.2 56.8C445.7 56.8 444.8 57.3 444.6 58.3C444.5 58.8 444.7 59.5 445.2 60.5C445.4 60.8 445.6 61.4 445.9 62L447.2 65.1L450.1 62C452 60 453 58.7 453.1 58.2C453.3 57.2 452.7 56.7 451.2 56.7L451.4 55.6H460.8L460.6 56.7C459.4 56.7 458.2 57.1 457.2 57.9C456.2 58.7 454.7 60 452.9 62L448.1 67L452.9 76.9C453.9 79 454.7 80.4 455.4 81.1C456 81.8 457 82.1 458.3 82.2L458 83.2Z" fill="#252C07"/>
</svg>
